<svg width="512" height="512" viewBox="0 0 512 512" xmlns="http://www.w3.org/2000/svg">
  <defs>
    <linearGradient id="bg" x1="0" y1="0" x2="512" y2="512" gradientUnits="userSpaceOnUse">
      <stop offset="0%" stop-color="#6366F1"/>
      <stop offset="100%" stop-color="#8B5CF6"/>
    </linearGradient>
  </defs>

  <rect width="512" height="512" rx="100" fill="url(#bg)"/>

  <path d="M 140 100 H 372 A 50 50 0 0 1 422 150 V 322 A 50 50 0 0 1 372 372 H 220 L 160 432 L 180 372 H 140 A 50 50 0 0 1 90 322 V 150 A 50 50 0 0 1 140 100 Z"
        fill="white"/>

  <path d="M 170 260 L 215 305 L 305 210"
        stroke="#6366F1" stroke-width="38"
        stroke-linecap="round" stroke-linejoin="round"
        fill="none"/>

  <path d="M 370 135 L 378 158 L 400 165 L 378 173 L 370 195 L 362 173 L 340 165 L 362 158 Z"
        fill="#6366F1"/>

  <circle cx="110" cy="380" r="10" fill="white"/>
  <rect x="105" y="390" width="10" height="20" fill="white"/>
  <rect x="55" y="410" width="110" height="85" rx="20" fill="white"/>
  <circle cx="85" cy="445" r="10" fill="#6366F1"/>
  <circle cx="135" cy="445" r="10" fill="#6366F1"/>
  <path d="M 88 470 Q 110 485 132 470"
        stroke="#6366F1" stroke-width="6"
        stroke-linecap="round" fill="none"/>
</svg>
